<svg xmlns="http://www.w3.org/2000/svg" width="900" height="700" viewBox="0 0 900 700" role="img" aria-label="GameDock Mobile Controller">
  <rect width="900" height="700" fill="#ffffff"/>
  <rect x="34" y="34" width="832" height="632" rx="28" fill="#ffffff" stroke="#080808" stroke-width="6"/>
  <rect x="64" y="64" width="214" height="46" rx="23" fill="#080808"/>
  <text x="90" y="95" font-family="Arial, Helvetica, sans-serif" font-size="22" font-weight="800" fill="#ffffff">GAMING</text>
  <g><path d="M250 260c28-78 78-112 150-86l100 36 100-36c72-26 122 8 150 86 34 94-8 172-78 150l-84-30H312l-84 30c-70 22-112-56-78-150z" fill="#fff" stroke="#080808" stroke-width="18"/><path d="M330 290h90M375 245v90" stroke="#080808" stroke-width="18" stroke-linecap="round"/><circle cx="570" cy="276" r="18" fill="#080808"/><circle cx="628" cy="318" r="18" fill="#080808"/></g>
  <text x="72" y="570" font-family="Arial, Helvetica, sans-serif" font-size="34" font-weight="900" fill="#080808">GameDock Mobile Controller</text>
  <text x="72" y="615" font-family="Arial, Helvetica, sans-serif" font-size="28" font-weight="800" fill="#080808">PHP 1,790</text>
</svg>